<svg width="20" height="20" viewBox="0 0 20 20" fill="none" xmlns="http://www.w3.org/2000/svg">
<path d="M16.3865 2.17401H12.4365L16.9746 6.30041V2.76214C16.9746 2.43733 16.7113 2.17401 16.3865 2.17401Z" fill="white"/>
<path d="M19.6641 8.44567L10.6908 0.269199C10.2969 -0.0897459 9.70295 -0.0897068 9.30924 0.26916L0.33586 8.4457C0.0203532 8.7332 -0.0838653 9.17617 0.070275 9.57418C0.224454 9.97219 0.599844 10.2293 1.02668 10.2293H2.45988V18.4215C2.45988 18.7463 2.72324 19.0097 3.04804 19.0097H7.96655C8.29135 19.0097 8.55471 18.7464 8.55471 18.4215V13.4475H11.4454V18.4216C11.4454 18.7464 11.7088 19.0097 12.0336 19.0097H16.9518C17.2766 19.0097 17.54 18.7464 17.54 18.4216V10.2293H18.9735C19.4003 10.2293 19.7757 9.97215 19.9299 9.57418C20.0838 9.17613 19.9796 8.7332 19.6641 8.44567Z" fill="white"/>
</svg>
