<svg width="30" height="30" viewBox="0 0 30 30" fill="none" xmlns="http://www.w3.org/2000/svg">
<path d="M21.0141 6.6734V1.49964C21.0141 0.674839 20.3546 0 19.548 0H1.4661C0.659743 0 0 0.674839 0 1.49964V2.47441V22.0197V22.6948C0 23.2444 0.317654 23.7693 0.781918 24.0193L11.9243 29.9181C12.413 30.168 12.9994 29.8184 12.9994 29.2433V23.4946H19.548C20.3546 23.4946 21.0141 22.82 21.0141 21.995V13.7969H18.0819V19.7455C18.0819 20.1704 17.7642 20.4953 17.3488 20.4953H13.0238V12.7972V7.92335V7.77339C13.0238 7.22352 12.7062 6.69865 12.2419 6.44871L5.66891 2.99953H17.3488C17.7642 2.99953 18.0819 3.32445 18.0819 3.74935V6.69865H21.0141V6.6734Z" fill="white"/>
<path d="M24.7771 4.22373L29.5419 9.09756C30.1527 9.72241 30.1527 10.6472 29.5419 11.272L24.7771 16.1459C24.1662 16.7707 23.2374 16.796 22.6265 16.1711C22.0403 15.5715 22.1134 14.5715 22.6757 13.9716L24.8257 11.7972H16.4936C16.0785 11.7972 15.6628 11.6222 15.394 11.2973C14.7099 10.5475 14.8809 9.22278 15.7606 8.7229C15.9805 8.59793 16.2493 8.52295 16.4936 8.52295H24.8259C24.8259 8.52295 22.7003 6.34847 22.6759 6.34847C22.1137 5.7736 22.0403 4.74885 22.6268 4.17399C23.2132 3.57413 24.1662 3.59887 24.7771 4.22373Z" fill="white"/>
</svg>
