<svg width="20" height="20" viewBox="0 0 20 20" fill="none" xmlns="http://www.w3.org/2000/svg">
<g clip-path="url(#clip0)">
<path d="M16.5773 0H3.30549C2.06443 0 1.05469 0.998522 1.05469 2.2258V16.4247C1.05469 17.0596 1.57691 17.576 2.2189 17.576H7.31549C7.52984 17.576 7.70356 17.4042 7.70356 17.1922C7.70356 16.9803 7.52984 16.8085 7.31549 16.8085H2.2189C2.00485 16.8085 1.83083 16.6364 1.83083 16.4247V2.2258C1.83083 1.42171 2.49236 0.767517 3.30549 0.767517H14.8791C14.5354 1.15847 14.3265 1.6683 14.3265 2.2258V14.593C14.3265 14.9471 14.0353 15.2351 13.6773 15.2351C13.3974 15.2351 13.1499 15.0586 13.0612 14.7961L12.4764 13.0608C12.3113 12.5709 11.8494 12.2419 11.3273 12.2419C10.6594 12.2419 10.1161 12.7792 10.1161 13.4395V13.7384H8.10467C7.89032 13.7384 7.7166 13.9103 7.7166 14.1222C7.7166 14.3341 7.89032 14.5059 8.10467 14.5059H10.1161V16.4151C10.1161 16.9818 10.2278 17.5343 10.4482 18.0572L11.0191 19.4122C11.0813 19.5595 11.2254 19.6484 11.3775 19.6484C11.4272 19.6484 11.4778 19.639 11.5265 19.6189C11.7245 19.5374 11.818 19.3126 11.7355 19.117L11.1647 17.762C10.984 17.3331 10.8923 16.88 10.8923 16.4153V13.4396C10.8923 13.2023 11.0873 13.0094 11.3273 13.0094C11.5148 13.0094 11.6808 13.1275 11.7401 13.3035L12.3249 15.0388C12.5193 15.6152 13.0627 16.0026 13.6773 16.0026C14.4633 16.0026 15.1027 15.3703 15.1027 14.593V8.01351L15.6212 8.52529C16.5465 9.43851 17.056 10.6535 17.056 11.9461V16.0255C17.056 17.0822 16.814 18.1453 16.3562 19.1001C16.2643 19.2915 16.3469 19.5204 16.5405 19.6113C16.7341 19.7021 16.9655 19.6206 17.0574 19.429C17.5642 18.3721 17.8322 17.1952 17.8322 16.0255V11.9461C17.8322 10.4481 17.2417 9.04036 16.1695 7.98203L15.1027 6.92894V6.56227H17.6639C18.3059 6.56227 18.8281 6.04585 18.8281 5.411V2.2258C18.8281 0.998522 17.8185 0 16.5773 0V0ZM18.052 5.411C18.052 5.62251 17.878 5.79475 17.6639 5.79475H15.1027V2.2258C15.1027 1.42171 15.7642 0.767517 16.5773 0.767517C17.3904 0.767517 18.052 1.42171 18.052 2.2258V5.411Z" fill="#BCB1B1"/>
<path d="M9.0625 17.1092C8.95966 17.1092 8.85895 17.151 8.78632 17.2237C8.71368 17.2964 8.67188 17.3972 8.67188 17.4998C8.67188 17.6027 8.71368 17.7034 8.78632 17.776C8.85895 17.8487 8.95966 17.8905 9.0625 17.8905C9.16519 17.8905 9.2659 17.8487 9.33868 17.776C9.41132 17.7034 9.45312 17.6027 9.45312 17.4998C9.45312 17.3972 9.41132 17.2964 9.33868 17.2237C9.2659 17.151 9.16519 17.1092 9.0625 17.1092Z" fill="#BCB1B1"/>
<path d="M6.43213 2.89062C6.43213 2.45987 6.08164 2.10938 5.65088 2.10938H3.93213C3.50122 2.10938 3.15088 2.45987 3.15088 2.89062V4.60938C3.15088 5.04013 3.50122 5.39062 3.93213 5.39062H5.65088C6.08164 5.39062 6.43213 5.04013 6.43213 4.60938V2.89062ZM5.65088 4.60938H3.93213V2.89062H5.65088L5.65134 4.60938C5.65134 4.60938 5.65118 4.60938 5.65088 4.60938Z" fill="#BCB1B1"/>
<path d="M5.65088 11.4844H3.93213C3.50122 11.4844 3.15088 11.8347 3.15088 12.2656V13.9842C3.15088 14.4151 3.50122 14.7655 3.93213 14.7655H5.65088C6.08164 14.7655 6.43213 14.4151 6.43213 13.9842V12.2656C6.43213 11.8347 6.08164 11.4844 5.65088 11.4844ZM5.65088 13.9842H3.93213V12.2656H5.65088L5.65134 13.9842C5.65134 13.9842 5.65118 13.9842 5.65088 13.9842Z" fill="#BCB1B1"/>
<path d="M6.43213 7.57812C6.43213 7.14737 6.08164 6.79688 5.65088 6.79688H3.93213C3.50122 6.79688 3.15088 7.14737 3.15088 7.57812V9.29688C3.15088 9.72763 3.50122 10.0781 3.93213 10.0781H5.65088C6.08164 10.0781 6.43213 9.72763 6.43213 9.29688V7.57812ZM5.65088 9.29688H3.93213V7.57812H5.65088L5.65134 9.29688C5.65134 9.29688 5.65118 9.29688 5.65088 9.29688Z" fill="#BCB1B1"/>
<path d="M8.15088 5.39062C8.25372 5.39062 8.35443 5.34882 8.42706 5.27618C8.49969 5.20355 8.5415 5.10269 8.5415 5C8.5415 4.89731 8.49969 4.79645 8.42706 4.72382C8.35443 4.65118 8.25372 4.60938 8.15088 4.60938C8.04773 4.60938 7.94733 4.65118 7.87469 4.72382C7.80176 4.79645 7.76025 4.89731 7.76025 5C7.76025 5.10269 7.80176 5.20355 7.87469 5.27618C7.94733 5.34882 8.04773 5.39062 8.15088 5.39062Z" fill="#BCB1B1"/>
<path d="M12.6304 5.39062C12.8461 5.39062 13.021 5.21576 13.021 5C13.021 4.78424 12.8461 4.60938 12.6304 4.60938H9.9375C9.72174 4.60938 9.54688 4.78424 9.54688 5C9.54688 5.21576 9.72174 5.39062 9.9375 5.39062H12.6304Z" fill="#BCB1B1"/>
<path d="M8.15088 10.0781H12.6301C12.8459 10.0781 13.0207 9.90326 13.0207 9.6875C13.0207 9.47174 12.8459 9.29688 12.6301 9.29688H8.15088C7.93527 9.29688 7.76025 9.47174 7.76025 9.6875C7.76025 9.90326 7.93527 10.0781 8.15088 10.0781V10.0781Z" fill="#BCB1B1"/>
</g>
<defs>
<clipPath id="clip0">
<rect width="20" height="20" fill="white"/>
</clipPath>
</defs>
</svg>
