<svg width="100" height="100" viewBox="0 0 100 100" fill="none" xmlns="http://www.w3.org/2000/svg">
<g clip-path="url(#clip0)">
<path d="M93.9613 28.5362L75.9132 10.4538V82.9157H100.067V43.2183C100.067 37.7062 97.8688 32.422 93.9613 28.5362Z" fill="#FFB782"/>
<path d="M14.1068 69.7127L0.462799 34.2926C-0.906624 30.737 0.86491 26.743 4.4225 25.3729L68.8224 0.566765C72.378 -0.802659 76.372 0.968876 77.7414 4.52647L91.3855 39.9466C92.7549 43.5022 90.9834 47.4962 87.4258 48.8663L23.0279 73.6724C19.4703 75.0419 15.4783 73.2683 14.1068 69.7127Z" fill="#DE4C3C"/>
<path d="M82.6586 17.2857L5.44202 47.2162L10.5836 60.5632L87.8035 30.6465L82.6586 17.2857Z" fill="#7A4930"/>
<path d="M0.00201416 44.9596V7.00333C0.00201416 3.19218 3.09213 0.102066 6.90327 0.102066H75.9145C79.7257 0.102066 82.8158 3.19218 82.8158 7.00333V44.9596C82.8158 48.7707 79.7257 51.8609 75.9145 51.8609H6.90327C3.09213 51.8609 0.00201416 48.7707 0.00201416 44.9596Z" fill="#4398D1"/>
<path d="M75.9132 0.101894H68.5807L16.822 51.8607H75.9132C79.7243 51.8607 82.8144 48.7705 82.8144 44.9594V7.00315C82.8144 3.19201 79.7243 0.101894 75.9132 0.101894Z" fill="#3E8CC7"/>
<path d="M6.90192 27.7063H13.8032V31.1569H6.90192V27.7063Z" fill="#5EB3D1"/>
<path d="M6.90192 38.0582H13.8032V41.5088H6.90192V38.0582Z" fill="#5EB3D1"/>
<path d="M37.9569 38.0582H44.8582V41.5088H37.9569V38.0582Z" fill="#5EB3D1"/>
<path d="M17.2538 27.7063H24.1544V31.1569H17.2538V27.7063Z" fill="#5EB3D1"/>
<path d="M27.605 27.7063H34.5063V31.1569H27.605V27.7063Z" fill="#5EB3D1"/>
<path d="M37.9569 27.7063H44.8582V31.1569H37.9569V27.7063Z" fill="#5EB3D1"/>
<path d="M70.7372 7.00315H74.1879V12.1791H70.7372V7.00315Z" fill="#5EB3D1"/>
<path d="M63.836 7.00315H67.2866V12.1791H63.836V7.00315Z" fill="#5EB3D1"/>
<path d="M56.9347 7.00315H60.3853V12.1791H56.9347V7.00315Z" fill="#5EB3D1"/>
<path d="M50.0341 7.00315H53.4841V12.1791H50.0341V7.00315Z" fill="#5EB3D1"/>
<path d="M69.0119 82.9157H100.067V100.168H69.0119V82.9157Z" fill="#88B337"/>
<path d="M63.9482 31.2691C61.0219 28.3533 56.2863 28.3619 53.3705 31.2883C50.5511 34.1176 50.4534 38.6636 53.148 41.6124L67.2866 57.0366C63.037 64.474 63.2186 73.6453 67.7574 80.9091L69.0119 82.9157H91.4403V58.7619L63.9482 31.2691Z" fill="#FFB782"/>
<path d="M74.1879 88.0916H77.6385V91.5423H74.1879V88.0916Z" fill="#6B962A"/>
<path d="M6.90192 18.045V9.76379C6.90192 8.23854 8.1373 7.00315 9.66255 7.00315H17.9438C19.4691 7.00315 20.7038 8.23854 20.7038 9.76379V18.045C20.7038 19.5703 19.4691 20.8057 17.9438 20.8057H9.66255C8.1373 20.8057 6.90192 19.5703 6.90192 18.045Z" fill="#FDB62F"/>
<path d="M6.90192 12.1791H12.0779V15.6297H6.90192V12.1791Z" fill="#FD7B2F"/>
<path d="M15.5285 12.1791H20.7038V15.6297H15.5285V12.1791Z" fill="#FD7B2F"/>
<path d="M89.715 58.7619C89.2581 58.7619 88.8184 58.5804 88.4955 58.2562L81.5942 51.3549C80.932 50.6702 80.9511 49.5781 81.6378 48.9152C82.3073 48.2701 83.3664 48.2701 84.034 48.9152L90.9352 55.8164C91.608 56.4912 91.608 57.5833 90.9352 58.2562C90.6104 58.5804 90.1726 58.7619 89.715 58.7619Z" fill="#F2A46F"/>
</g>
<defs>
<clipPath id="clip0">
<rect width="100" height="100" fill="white"/>
</clipPath>
</defs>
</svg>
